<?xml version="1.0" encoding="UTF-8"?>
<svg xmlns="http://www.w3.org/2000/svg" xmlns:xlink="http://www.w3.org/1999/xlink" width="858.897pt" height="612.288pt" viewBox="0 0 858.897 612.288" version="1.1">
<defs>
<clipPath id="clip1">
  <path d="M 248 197 L 283 197 L 283 219 L 248 219 Z M 248 197 "/>
</clipPath>
<clipPath id="clip2">
  <path d="M 302.636719 209.171875 C 257.972656 209.171875 248.972656 197.171875 248.972656 197.171875 C 248.972656 197.171875 311.972656 352.839844 458.769531 352.839844 C 536.234375 352.839844 579 312.003906 597.585938 312.003906 C 616.171875 312.003906 630.972656 318.839844 630.972656 311.835938 C 630.972656 304.839844 581.636719 197.171875 458.769531 197.171875 C 396.238281 197.171875 347.304688 209.171875 302.636719 209.171875 "/>
</clipPath>
<clipPath id="clip3">
  <path d="M 248 197 L 319 197 L 319 255 L 248 255 Z M 248 197 "/>
</clipPath>
<clipPath id="clip4">
  <path d="M 302.636719 209.171875 C 257.972656 209.171875 248.972656 197.171875 248.972656 197.171875 C 248.972656 197.171875 311.972656 352.839844 458.769531 352.839844 C 536.234375 352.839844 579 312.003906 597.585938 312.003906 C 616.171875 312.003906 630.972656 318.839844 630.972656 311.835938 C 630.972656 304.839844 581.636719 197.171875 458.769531 197.171875 C 396.238281 197.171875 347.304688 209.171875 302.636719 209.171875 "/>
</clipPath>
<clipPath id="clip5">
  <path d="M 264 199 L 342 199 L 342 265 L 264 265 Z M 264 199 "/>
</clipPath>
<clipPath id="clip6">
  <path d="M 302.636719 209.171875 C 257.972656 209.171875 248.972656 197.171875 248.972656 197.171875 C 248.972656 197.171875 311.972656 352.839844 458.769531 352.839844 C 536.234375 352.839844 579 312.003906 597.585938 312.003906 C 616.171875 312.003906 630.972656 318.839844 630.972656 311.835938 C 630.972656 304.839844 581.636719 197.171875 458.769531 197.171875 C 396.238281 197.171875 347.304688 209.171875 302.636719 209.171875 "/>
</clipPath>
<clipPath id="clip7">
  <path d="M 269 197 L 396 197 L 396 284 L 269 284 Z M 269 197 "/>
</clipPath>
<clipPath id="clip8">
  <path d="M 302.636719 209.171875 C 257.972656 209.171875 248.972656 197.171875 248.972656 197.171875 C 248.972656 197.171875 311.972656 352.839844 458.769531 352.839844 C 536.234375 352.839844 579 312.003906 597.585938 312.003906 C 616.171875 312.003906 630.972656 318.839844 630.972656 311.835938 C 630.972656 304.839844 581.636719 197.171875 458.769531 197.171875 C 396.238281 197.171875 347.304688 209.171875 302.636719 209.171875 "/>
</clipPath>
<clipPath id="clip9">
  <path d="M 276 197 L 418 197 L 418 289 L 276 289 Z M 276 197 "/>
</clipPath>
<clipPath id="clip10">
  <path d="M 302.636719 209.171875 C 257.972656 209.171875 248.972656 197.171875 248.972656 197.171875 C 248.972656 197.171875 311.972656 352.839844 458.769531 352.839844 C 536.234375 352.839844 579 312.003906 597.585938 312.003906 C 616.171875 312.003906 630.972656 318.839844 630.972656 311.835938 C 630.972656 304.839844 581.636719 197.171875 458.769531 197.171875 C 396.238281 197.171875 347.304688 209.171875 302.636719 209.171875 "/>
</clipPath>
<clipPath id="clip11">
  <path d="M 274 197 L 430 197 L 430 312 L 274 312 Z M 274 197 "/>
</clipPath>
<clipPath id="clip12">
  <path d="M 302.636719 209.171875 C 257.972656 209.171875 248.972656 197.171875 248.972656 197.171875 C 248.972656 197.171875 311.972656 352.839844 458.769531 352.839844 C 536.234375 352.839844 579 312.003906 597.585938 312.003906 C 616.171875 312.003906 630.972656 318.839844 630.972656 311.835938 C 630.972656 304.839844 581.636719 197.171875 458.769531 197.171875 C 396.238281 197.171875 347.304688 209.171875 302.636719 209.171875 "/>
</clipPath>
<clipPath id="clip13">
  <path d="M 291 197 L 431 197 L 431 341 L 291 341 Z M 291 197 "/>
</clipPath>
<clipPath id="clip14">
  <path d="M 302.636719 209.171875 C 257.972656 209.171875 248.972656 197.171875 248.972656 197.171875 C 248.972656 197.171875 311.972656 352.839844 458.769531 352.839844 C 536.234375 352.839844 579 312.003906 597.585938 312.003906 C 616.171875 312.003906 630.972656 318.839844 630.972656 311.835938 C 630.972656 304.839844 581.636719 197.171875 458.769531 197.171875 C 396.238281 197.171875 347.304688 209.171875 302.636719 209.171875 "/>
</clipPath>
<clipPath id="clip15">
  <path d="M 357 197 L 446 197 L 446 349 L 357 349 Z M 357 197 "/>
</clipPath>
<clipPath id="clip16">
  <path d="M 302.636719 209.171875 C 257.972656 209.171875 248.972656 197.171875 248.972656 197.171875 C 248.972656 197.171875 311.972656 352.839844 458.769531 352.839844 C 536.234375 352.839844 579 312.003906 597.585938 312.003906 C 616.171875 312.003906 630.972656 318.839844 630.972656 311.835938 C 630.972656 304.839844 581.636719 197.171875 458.769531 197.171875 C 396.238281 197.171875 347.304688 209.171875 302.636719 209.171875 "/>
</clipPath>
<clipPath id="clip17">
  <path d="M 366 197 L 461 197 L 461 353 L 366 353 Z M 366 197 "/>
</clipPath>
<clipPath id="clip18">
  <path d="M 302.636719 209.171875 C 257.972656 209.171875 248.972656 197.171875 248.972656 197.171875 C 248.972656 197.171875 311.972656 352.839844 458.769531 352.839844 C 536.234375 352.839844 579 312.003906 597.585938 312.003906 C 616.171875 312.003906 630.972656 318.839844 630.972656 311.835938 C 630.972656 304.839844 581.636719 197.171875 458.769531 197.171875 C 396.238281 197.171875 347.304688 209.171875 302.636719 209.171875 "/>
</clipPath>
<clipPath id="clip19">
  <path d="M 382 197 L 470 197 L 470 353 L 382 353 Z M 382 197 "/>
</clipPath>
<clipPath id="clip20">
  <path d="M 302.636719 209.171875 C 257.972656 209.171875 248.972656 197.171875 248.972656 197.171875 C 248.972656 197.171875 311.972656 352.839844 458.769531 352.839844 C 536.234375 352.839844 579 312.003906 597.585938 312.003906 C 616.171875 312.003906 630.972656 318.839844 630.972656 311.835938 C 630.972656 304.839844 581.636719 197.171875 458.769531 197.171875 C 396.238281 197.171875 347.304688 209.171875 302.636719 209.171875 "/>
</clipPath>
<clipPath id="clip21">
  <path d="M 579 246 L 631 246 L 631 353 L 579 353 Z M 579 246 "/>
</clipPath>
<clipPath id="clip22">
  <path d="M 302.636719 209.171875 C 257.972656 209.171875 248.972656 197.171875 248.972656 197.171875 C 248.972656 197.171875 311.972656 352.839844 458.769531 352.839844 C 536.234375 352.839844 579 312.003906 597.585938 312.003906 C 616.171875 312.003906 630.972656 318.839844 630.972656 311.835938 C 630.972656 304.839844 581.636719 197.171875 458.769531 197.171875 C 396.238281 197.171875 347.304688 209.171875 302.636719 209.171875 "/>
</clipPath>
<clipPath id="clip23">
  <path d="M 532 216 L 609 216 L 609 353 L 532 353 Z M 532 216 "/>
</clipPath>
<clipPath id="clip24">
  <path d="M 302.636719 209.171875 C 257.972656 209.171875 248.972656 197.171875 248.972656 197.171875 C 248.972656 197.171875 311.972656 352.839844 458.769531 352.839844 C 536.234375 352.839844 579 312.003906 597.585938 312.003906 C 616.171875 312.003906 630.972656 318.839844 630.972656 311.835938 C 630.972656 304.839844 581.636719 197.171875 458.769531 197.171875 C 396.238281 197.171875 347.304688 209.171875 302.636719 209.171875 "/>
</clipPath>
<clipPath id="clip25">
  <path d="M 513 206 L 590 206 L 590 353 L 513 353 Z M 513 206 "/>
</clipPath>
<clipPath id="clip26">
  <path d="M 302.636719 209.171875 C 257.972656 209.171875 248.972656 197.171875 248.972656 197.171875 C 248.972656 197.171875 311.972656 352.839844 458.769531 352.839844 C 536.234375 352.839844 579 312.003906 597.585938 312.003906 C 616.171875 312.003906 630.972656 318.839844 630.972656 311.835938 C 630.972656 304.839844 581.636719 197.171875 458.769531 197.171875 C 396.238281 197.171875 347.304688 209.171875 302.636719 209.171875 "/>
</clipPath>
<clipPath id="clip27">
  <path d="M 511 204 L 572 204 L 572 353 L 511 353 Z M 511 204 "/>
</clipPath>
<clipPath id="clip28">
  <path d="M 302.636719 209.171875 C 257.972656 209.171875 248.972656 197.171875 248.972656 197.171875 C 248.972656 197.171875 311.972656 352.839844 458.769531 352.839844 C 536.234375 352.839844 579 312.003906 597.585938 312.003906 C 616.171875 312.003906 630.972656 318.839844 630.972656 311.835938 C 630.972656 304.839844 581.636719 197.171875 458.769531 197.171875 C 396.238281 197.171875 347.304688 209.171875 302.636719 209.171875 "/>
</clipPath>
<clipPath id="clip29">
  <path d="M 496 201 L 548 201 L 548 353 L 496 353 Z M 496 201 "/>
</clipPath>
<clipPath id="clip30">
  <path d="M 302.636719 209.171875 C 257.972656 209.171875 248.972656 197.171875 248.972656 197.171875 C 248.972656 197.171875 311.972656 352.839844 458.769531 352.839844 C 536.234375 352.839844 579 312.003906 597.585938 312.003906 C 616.171875 312.003906 630.972656 318.839844 630.972656 311.835938 C 630.972656 304.839844 581.636719 197.171875 458.769531 197.171875 C 396.238281 197.171875 347.304688 209.171875 302.636719 209.171875 "/>
</clipPath>
<clipPath id="clip31">
  <path d="M 471 197 L 527 197 L 527 353 L 471 353 Z M 471 197 "/>
</clipPath>
<clipPath id="clip32">
  <path d="M 302.636719 209.171875 C 257.972656 209.171875 248.972656 197.171875 248.972656 197.171875 C 248.972656 197.171875 311.972656 352.839844 458.769531 352.839844 C 536.234375 352.839844 579 312.003906 597.585938 312.003906 C 616.171875 312.003906 630.972656 318.839844 630.972656 311.835938 C 630.972656 304.839844 581.636719 197.171875 458.769531 197.171875 C 396.238281 197.171875 347.304688 209.171875 302.636719 209.171875 "/>
</clipPath>
<clipPath id="clip33">
  <path d="M 434 197 L 499 197 L 499 353 L 434 353 Z M 434 197 "/>
</clipPath>
<clipPath id="clip34">
  <path d="M 302.636719 209.171875 C 257.972656 209.171875 248.972656 197.171875 248.972656 197.171875 C 248.972656 197.171875 311.972656 352.839844 458.769531 352.839844 C 536.234375 352.839844 579 312.003906 597.585938 312.003906 C 616.171875 312.003906 630.972656 318.839844 630.972656 311.835938 C 630.972656 304.839844 581.636719 197.171875 458.769531 197.171875 C 396.238281 197.171875 347.304688 209.171875 302.636719 209.171875 "/>
</clipPath>
<clipPath id="clip35">
  <path d="M 409 197 L 503 197 L 503 353 L 409 353 Z M 409 197 "/>
</clipPath>
<clipPath id="clip36">
  <path d="M 302.636719 209.171875 C 257.972656 209.171875 248.972656 197.171875 248.972656 197.171875 C 248.972656 197.171875 311.972656 352.839844 458.769531 352.839844 C 536.234375 352.839844 579 312.003906 597.585938 312.003906 C 616.171875 312.003906 630.972656 318.839844 630.972656 311.835938 C 630.972656 304.839844 581.636719 197.171875 458.769531 197.171875 C 396.238281 197.171875 347.304688 209.171875 302.636719 209.171875 "/>
</clipPath>
<clipPath id="clip37">
  <path d="M 385 197 L 495 197 L 495 353 L 385 353 Z M 385 197 "/>
</clipPath>
<clipPath id="clip38">
  <path d="M 302.636719 209.171875 C 257.972656 209.171875 248.972656 197.171875 248.972656 197.171875 C 248.972656 197.171875 311.972656 352.839844 458.769531 352.839844 C 536.234375 352.839844 579 312.003906 597.585938 312.003906 C 616.171875 312.003906 630.972656 318.839844 630.972656 311.835938 C 630.972656 304.839844 581.636719 197.171875 458.769531 197.171875 C 396.238281 197.171875 347.304688 209.171875 302.636719 209.171875 "/>
</clipPath>
<clipPath id="clip39">
  <path d="M 385 197 L 478 197 L 478 353 L 385 353 Z M 385 197 "/>
</clipPath>
<clipPath id="clip40">
  <path d="M 302.636719 209.171875 C 257.972656 209.171875 248.972656 197.171875 248.972656 197.171875 C 248.972656 197.171875 311.972656 352.839844 458.769531 352.839844 C 536.234375 352.839844 579 312.003906 597.585938 312.003906 C 616.171875 312.003906 630.972656 318.839844 630.972656 311.835938 C 630.972656 304.839844 581.636719 197.171875 458.769531 197.171875 C 396.238281 197.171875 347.304688 209.171875 302.636719 209.171875 "/>
</clipPath>
</defs>
<g id="surface1">
<path style=" stroke:none;fill-rule:nonzero;fill:rgb(13.328552%,0%,0%);fill-opacity:1;" d="M 850.394531 603.777344 L 8.503906 603.777344 L 8.503906 8.503906 L 850.394531 8.503906 Z M 850.394531 603.777344 "/>
<g clip-path="url(#clip1)" clip-rule="nonzero">
<g clip-path="url(#clip2)" clip-rule="nonzero">
<path style=" stroke:none;fill-rule:nonzero;fill:rgb(92.996216%,7.034302%,48.406982%);fill-opacity:1;" d="M 251.050781 218.503906 C 252.050781 219.835938 282.71875 201.503906 282.71875 201.503906 L 246.050781 180.835938 L 251.386719 216.503906 Z M 251.050781 218.503906 "/>
</g>
</g>
<g clip-path="url(#clip3)" clip-rule="nonzero">
<g clip-path="url(#clip4)" clip-rule="nonzero">
<path style=" stroke:none;fill-rule:nonzero;fill:rgb(85.430908%,6.96106%,35.038757%);fill-opacity:1;" d="M 271.71875 254.207031 C 272.71875 254.503906 318.71875 206.171875 318.71875 206.171875 L 295.21875 189.171875 L 243.386719 221.691406 Z M 271.71875 254.207031 "/>
</g>
</g>
<g clip-path="url(#clip5)" clip-rule="nonzero">
<g clip-path="url(#clip6)" clip-rule="nonzero">
<path style=" stroke:none;fill-rule:nonzero;fill:rgb(61.151123%,8.518982%,37.969971%);fill-opacity:1;" d="M 264.386719 259.171875 C 267.050781 255.835938 325.109375 199.703125 325.109375 199.703125 L 341.386719 203.835938 L 276.316406 264.171875 Z M 264.386719 259.171875 "/>
</g>
</g>
<g clip-path="url(#clip7)" clip-rule="nonzero">
<g clip-path="url(#clip8)" clip-rule="nonzero">
<path style=" stroke:none;fill-rule:nonzero;fill:rgb(55.2948%,9.609985%,56.074524%);fill-opacity:1;" d="M 269.386719 267.132813 C 270.71875 265.171875 314.949219 206.835938 348.71875 197.171875 C 382.488281 187.503906 395.925781 199.703125 395.925781 199.703125 C 395.925781 199.703125 376.050781 207.039063 343.386719 231.9375 L 284.050781 283.660156 Z M 269.386719 267.132813 "/>
</g>
</g>
<g clip-path="url(#clip9)" clip-rule="nonzero">
<g clip-path="url(#clip10)" clip-rule="nonzero">
<path style=" stroke:none;fill-rule:nonzero;fill:rgb(36.66687%,14.414978%,56.661987%);fill-opacity:1;" d="M 285.386719 288.171875 C 286.71875 287.835938 340.386719 267.265625 373.71875 239.71875 C 407.050781 212.171875 417.050781 191.503906 417.050781 191.503906 C 417.050781 191.503906 357.386719 197.976563 335.71875 218.574219 C 314.050781 239.171875 276.316406 279.144531 276.316406 279.144531 Z M 285.386719 288.171875 "/>
</g>
</g>
<g clip-path="url(#clip11)" clip-rule="nonzero">
<g clip-path="url(#clip12)" clip-rule="nonzero">
<path style=" stroke:none;fill-rule:nonzero;fill:rgb(14.117432%,14.784241%,36.538696%);fill-opacity:1;" d="M 308.050781 311.171875 C 308.050781 311.171875 367.957031 295.835938 393.003906 252.835938 C 418.050781 209.835938 429.203125 189.171875 429.203125 189.171875 L 387.386719 204.835938 L 274.71875 289.503906 L 306.71875 311.171875 Z M 308.050781 311.171875 "/>
</g>
</g>
<g clip-path="url(#clip13)" clip-rule="nonzero">
<g clip-path="url(#clip14)" clip-rule="nonzero">
<path style=" stroke:none;fill-rule:nonzero;fill:rgb(17.286682%,21.737671%,57.260132%);fill-opacity:1;" d="M 360.386719 340.503906 C 361.050781 338.835938 369.460938 287.679688 395.925781 234.589844 C 422.386719 181.503906 430.398438 176.171875 430.398438 176.171875 C 430.398438 176.171875 317.386719 310.835938 295.386719 315.835938 C 273.386719 320.835938 360.386719 340.503906 360.386719 340.503906 "/>
</g>
</g>
<g clip-path="url(#clip15)" clip-rule="nonzero">
<g clip-path="url(#clip16)" clip-rule="nonzero">
<path style=" stroke:none;fill-rule:nonzero;fill:rgb(22.108459%,44.499207%,75.782776%);fill-opacity:1;" d="M 378.304688 347.835938 C 378.304688 347.835938 377.777344 278.332031 408.082031 226.75 C 438.386719 175.171875 445.054688 172.171875 445.054688 172.171875 C 445.054688 172.171875 393.71875 212.609375 381.71875 245.058594 C 369.71875 277.503906 356.71875 335.167969 357.050781 343.503906 C 357.386719 351.835938 378.304688 347.835938 378.304688 347.835938 "/>
</g>
</g>
<g clip-path="url(#clip17)" clip-rule="nonzero">
<g clip-path="url(#clip18)" clip-rule="nonzero">
<path style=" stroke:none;fill-rule:nonzero;fill:rgb(31.558228%,67.883301%,89.750671%);fill-opacity:1;" d="M 395.921875 355.171875 C 395.921875 355.171875 399.71875 285.425781 436.71875 247.335938 C 473.71875 209.25 455.617188 189.171875 455.617188 189.171875 L 414.382813 199.703125 L 366.386719 331.503906 L 368.386719 350.503906 Z M 395.921875 355.171875 "/>
</g>
</g>
<g clip-path="url(#clip19)" clip-rule="nonzero">
<g clip-path="url(#clip20)" clip-rule="nonzero">
<path style=" stroke:none;fill-rule:nonzero;fill:rgb(21.411133%,67.251587%,61.235046%);fill-opacity:1;" d="M 382.050781 359.835938 C 382.71875 358.835938 380.734375 313.074219 422.074219 256.738281 C 463.417969 200.40625 469.71875 182.835938 469.71875 182.835938 L 432.050781 199.703125 L 392.71875 278.335938 Z M 382.050781 359.835938 "/>
</g>
</g>
<g clip-path="url(#clip21)" clip-rule="nonzero">
<g clip-path="url(#clip22)" clip-rule="nonzero">
<path style=" stroke:none;fill-rule:nonzero;fill:rgb(75.02594%,10.392761%,17.410278%);fill-opacity:1;" d="M 637.050781 246.503906 C 637.050781 246.503906 641.050781 310.503906 621.386719 331.835938 C 601.71875 353.171875 579.386719 356.171875 579.386719 356.171875 C 579.386719 356.171875 587.71875 294.066406 603.050781 271.285156 C 618.386719 248.503906 637.050781 246.503906 637.050781 246.503906 "/>
</g>
</g>
<g clip-path="url(#clip23)" clip-rule="nonzero">
<g clip-path="url(#clip24)" clip-rule="nonzero">
<path style=" stroke:none;fill-rule:nonzero;fill:rgb(93.592834%,17.965698%,19.71283%);fill-opacity:1;" d="M 593.660156 216.496094 C 587.007813 258.503906 552.78125 334.839844 537.058594 355.171875 C 521.339844 375.503906 552.671875 374.171875 554.007813 373.503906 C 555.339844 372.839844 589.007813 358.519531 597.675781 322.847656 C 606.339844 287.171875 608.671875 238.371094 608.007813 231.9375 C 607.339844 225.503906 593.660156 216.496094 593.660156 216.496094 "/>
</g>
</g>
<g clip-path="url(#clip25)" clip-rule="nonzero">
<g clip-path="url(#clip26)" clip-rule="nonzero">
<path style=" stroke:none;fill-rule:nonzero;fill:rgb(94.335938%,27.375793%,13.926697%);fill-opacity:1;" d="M 513.050781 372.5625 C 513.050781 372.5625 517.71875 352.226563 536.71875 311.894531 C 555.71875 271.5625 567.386719 220.5625 564.050781 208.894531 C 560.71875 197.226563 589.71875 231.0625 589.71875 231.0625 C 589.71875 231.0625 575.050781 316.558594 553.71875 341.226563 C 532.386719 365.894531 513.050781 372.5625 513.050781 372.5625 "/>
</g>
</g>
<g clip-path="url(#clip27)" clip-rule="nonzero">
<g clip-path="url(#clip28)" clip-rule="nonzero">
<path style=" stroke:none;fill-rule:nonzero;fill:rgb(96.469116%,52.938843%,7.058716%);fill-opacity:1;" d="M 511.050781 365.1875 C 511.050781 365.1875 525.941406 273.519531 534.996094 247.519531 C 544.050781 221.519531 554.050781 204.1875 554.050781 204.1875 L 571.71875 219.589844 C 571.71875 219.589844 523.023438 375.125 522.703125 374.824219 C 522.386719 374.519531 511.050781 365.1875 511.050781 365.1875 "/>
</g>
</g>
<g clip-path="url(#clip29)" clip-rule="nonzero">
<g clip-path="url(#clip30)" clip-rule="nonzero">
<path style=" stroke:none;fill-rule:nonzero;fill:rgb(97.50824%,65.449524%,16.833496%);fill-opacity:1;" d="M 500.550781 362.171875 C 500.550781 362.171875 491.695313 288.476563 501.367188 258.335938 C 511.046875 228.199219 521.054688 201.171875 521.054688 201.171875 L 547.21875 216.496094 L 512.386719 365.171875 Z M 500.550781 362.171875 "/>
</g>
</g>
<g clip-path="url(#clip31)" clip-rule="nonzero">
<g clip-path="url(#clip32)" clip-rule="nonzero">
<path style=" stroke:none;fill-rule:nonzero;fill:rgb(80.000305%,88.938904%,6.272888%);fill-opacity:1;" d="M 482.035156 363.835938 C 482.035156 363.835938 461.316406 339.390625 477.683594 262.78125 C 494.054688 186.171875 496.847656 182.835938 496.847656 182.835938 L 526.386719 210.503906 L 503.433594 359.835938 Z M 482.035156 363.835938 "/>
</g>
</g>
<g clip-path="url(#clip33)" clip-rule="nonzero">
<g clip-path="url(#clip34)" clip-rule="nonzero">
<path style=" stroke:none;fill-rule:nonzero;fill:rgb(95.001221%,93.907166%,11.380005%);fill-opacity:1;" d="M 442.71875 365.171875 C 442.71875 365.171875 421.121094 318.671875 449.917969 275.253906 C 478.714844 231.835938 490.050781 196.171875 490.050781 196.171875 L 498.886719 198.128906 L 488.113281 371.835938 Z M 442.71875 365.171875 "/>
</g>
</g>
<g clip-path="url(#clip35)" clip-rule="nonzero">
<g clip-path="url(#clip36)" clip-rule="nonzero">
<path style=" stroke:none;fill-rule:nonzero;fill:rgb(50%,79.998779%,15.684509%);fill-opacity:1;" d="M 502.71875 198.128906 L 449.917969 376.503906 L 409.050781 362.171875 C 409.050781 360.835938 413.996094 268.617188 437.523438 250.894531 C 461.050781 233.171875 496.84375 193.675781 496.84375 193.675781 "/>
</g>
</g>
<g clip-path="url(#clip37)" clip-rule="nonzero">
<g clip-path="url(#clip38)" clip-rule="nonzero">
<path style=" stroke:none;fill-rule:nonzero;fill:rgb(25%,72.549438%,23.526001%);fill-opacity:1;" d="M 395.921875 357.835938 C 395.921875 357.835938 384.050781 350.09375 385.71875 348.796875 C 387.386719 347.503906 432.363281 249.902344 445.054688 224.171875 C 457.738281 198.4375 458.054688 191.503906 458.054688 191.503906 L 494.386719 199.703125 L 413.082031 359.835938 Z M 395.921875 357.835938 "/>
</g>
</g>
<g clip-path="url(#clip39)" clip-rule="nonzero">
<g clip-path="url(#clip40)" clip-rule="nonzero">
<path style=" stroke:none;fill-rule:nonzero;fill:rgb(25%,73.381042%,41.468811%);fill-opacity:1;" d="M 385.558594 371.835938 C 384.386719 367.503906 390.136719 285.441406 439.972656 234.675781 C 489.804688 183.910156 465.917969 176.171875 465.917969 176.171875 L 477.6875 187.835938 L 395.921875 371.835938 Z M 385.558594 371.835938 "/>
</g>
</g>
<path style=" stroke:none;fill-rule:nonzero;fill:rgb(13.729858%,12.159729%,12.548828%);fill-opacity:1;" d="M 319.285156 242.835938 C 319.285156 242.835938 415.617188 335.171875 507.953125 335.171875 C 552.953125 335.171875 582.953125 313.835938 602.285156 313.835938 C 621.617188 313.835938 651.285156 325.851563 611.617188 289.679688 C 571.953125 253.503906 554.953125 238.503906 510.953125 238.503906 C 462.285156 238.503906 428.953125 279.171875 401.617188 279.171875 C 366.617188 279.171875 319.285156 242.835938 319.285156 242.835938 "/>
<path style=" stroke:none;fill-rule:nonzero;fill:rgb(13.729858%,12.159729%,12.548828%);fill-opacity:1;" d="M 604.285156 267.503906 C 604.285156 267.503906 574.285156 215.835938 498.285156 215.835938 C 438.230469 215.835938 375.953125 271.835938 375.953125 271.835938 C 375.953125 271.835938 395.953125 270.171875 408.285156 264.171875 C 420.617188 258.171875 453.929688 225.503906 506.285156 225.503906 C 558.640625 225.503906 604.285156 267.503906 604.285156 267.503906 "/>
<path style=" stroke:none;fill-rule:nonzero;fill:rgb(13.729858%,12.159729%,12.548828%);fill-opacity:1;" d="M 367.953125 256.503906 C 383.46875 265.566406 408.953125 279.503906 416.953125 280.503906 C 424.953125 281.503906 408.253906 284.277344 393.953125 276.476563 C 379.648438 268.675781 367.953125 256.503906 367.953125 256.503906 "/>
<path style=" stroke:none;fill-rule:nonzero;fill:rgb(13.729858%,12.159729%,12.548828%);fill-opacity:1;" d="M 375.871094 251.785156 C 393.542969 260.867188 422.332031 274.835938 430.554688 275.835938 C 438.78125 276.839844 422.785156 279.617188 406.632813 271.800781 C 390.476563 263.984375 375.871094 251.785156 375.871094 251.785156 "/>
<path style=" stroke:none;fill-rule:nonzero;fill:rgb(13.729858%,12.159729%,12.548828%);fill-opacity:1;" d="M 390.570313 251.785156 C 408.242188 260.867188 437.03125 274.835938 445.253906 275.835938 C 453.480469 276.839844 437.488281 279.617188 421.332031 271.800781 C 405.179688 263.984375 390.570313 251.785156 390.570313 251.785156 "/>
<path style=" stroke:none;fill-rule:nonzero;fill:rgb(13.729858%,12.159729%,12.548828%);fill-opacity:1;" d="M 402.742188 248.226563 C 417.65625 256.703125 442.390625 269.785156 451.035156 270.878906 C 459.683594 271.972656 440.367188 274.027344 426.476563 266.707031 C 412.589844 259.382813 402.742188 248.226563 402.742188 248.226563 "/>
<path style=" stroke:none;fill-rule:nonzero;fill:rgb(13.729858%,12.159729%,12.548828%);fill-opacity:1;" d="M 410.648438 240.359375 C 426.113281 251.371094 451.851563 268.699219 461.195313 271.433594 C 470.53125 274.164063 449.230469 272.359375 434.777344 262.652344 C 420.320313 252.941406 410.648438 240.359375 410.648438 240.359375 "/>
<path style=" stroke:none;fill-rule:nonzero;fill:rgb(13.729858%,12.159729%,12.548828%);fill-opacity:1;" d="M 426.769531 242.390625 C 442.230469 253.402344 467.972656 270.730469 477.316406 273.460938 C 486.652344 276.195313 465.351563 274.390625 450.894531 264.679688 C 436.4375 254.972656 426.769531 242.390625 426.769531 242.390625 "/>
<path style=" stroke:none;fill-rule:nonzero;fill:rgb(13.729858%,12.159729%,12.548828%);fill-opacity:1;" d="M 438.941406 239.878906 C 453.71875 251.792969 478.382813 270.621094 487.546875 273.90625 C 496.703125 277.1875 475.550781 274.117188 461.695313 263.566406 C 447.84375 253.015625 438.941406 239.878906 438.941406 239.878906 "/>
<path style=" stroke:none;fill-rule:nonzero;fill:rgb(13.729858%,12.159729%,12.548828%);fill-opacity:1;" d="M 449.953125 237.050781 C 463.984375 249.835938 487.464844 270.125 496.410156 273.960938 C 505.351563 277.789063 484.425781 273.445313 471.234375 262.074219 C 458.046875 250.703125 449.953125 237.050781 449.953125 237.050781 "/>
<path style=" stroke:none;fill-rule:nonzero;fill:rgb(13.729858%,12.159729%,12.548828%);fill-opacity:1;" d="M 460.417969 231.921875 C 472.996094 246.140625 494.164063 268.832031 502.648438 273.601563 C 511.128906 278.371094 490.785156 271.804688 478.894531 259.085938 C 467 246.363281 460.417969 231.921875 460.417969 231.921875 "/>
<path style=" stroke:none;fill-rule:nonzero;fill:rgb(13.729858%,12.159729%,12.548828%);fill-opacity:1;" d="M 471.566406 228.082031 C 481.167969 244.457031 497.570313 270.796875 504.976563 277.113281 C 512.378906 283.425781 493.679688 273.066406 484.460938 258.292969 C 475.242188 243.519531 471.566406 228.082031 471.566406 228.082031 "/>
<path style=" stroke:none;fill-rule:nonzero;fill:rgb(13.729858%,12.159729%,12.548828%);fill-opacity:1;" d="M 483.894531 226.726563 C 491.371094 244.179688 504.332031 272.371094 510.882813 279.570313 C 517.433594 286.761719 500.1875 274.132813 492.894531 258.320313 C 485.601563 242.503906 483.894531 226.726563 483.894531 226.726563 "/>
<path style=" stroke:none;fill-rule:nonzero;fill:rgb(13.729858%,12.159729%,12.548828%);fill-opacity:1;" d="M 498.933594 224.085938 C 506.410156 241.535156 519.371094 269.730469 525.921875 276.925781 C 532.476563 284.117188 515.226563 271.492188 507.933594 255.679688 C 500.644531 239.863281 498.933594 224.085938 498.933594 224.085938 "/>
<path style=" stroke:none;fill-rule:nonzero;fill:rgb(13.729858%,12.159729%,12.548828%);fill-opacity:1;" d="M 516.339844 226.085938 C 523.816406 243.535156 536.777344 271.730469 543.328125 278.925781 C 549.878906 286.117188 532.632813 273.492188 525.339844 257.679688 C 518.046875 241.863281 516.339844 226.085938 516.339844 226.085938 "/>
<path style=" stroke:none;fill-rule:nonzero;fill:rgb(100%,100%,100%);fill-opacity:1;" d="M 611.453125 307.996094 C 611.453125 307.996094 595.046875 302.660156 571.378906 310.328125 C 547.710938 317.996094 495.117188 336.328125 447.453125 301.328125 C 447.453125 301.328125 471.117188 255.664063 520.117188 255.664063 C 570.785156 255.664063 613.453125 299.328125 618.453125 304.664063 C 623.453125 309.996094 611.453125 307.996094 611.453125 307.996094 "/>
<path style=" stroke:none;fill-rule:nonzero;fill:rgb(13.729858%,12.159729%,12.548828%);fill-opacity:1;" d="M 523.339844 266.160156 C 542.796875 266.160156 558.570313 279.871094 558.570313 296.78125 C 558.570313 300.308594 557.875 303.695313 556.609375 306.851563 C 560.078125 301.046875 562.074219 294.265625 562.074219 287.011719 C 562.074219 265.617188 544.734375 248.273438 523.339844 248.273438 C 501.945313 248.273438 484.605469 265.617188 484.605469 287.011719 C 484.605469 294.265625 486.601563 301.046875 490.070313 306.851563 C 488.808594 303.695313 488.109375 300.308594 488.109375 296.78125 C 488.109375 279.871094 503.882813 266.160156 523.339844 266.160156 "/>
<path style=" stroke:none;fill-rule:nonzero;fill:rgb(13.729858%,12.159729%,12.548828%);fill-opacity:1;" d="M 506.726563 292.214844 C 506.726563 301.390625 514.164063 308.828125 523.339844 308.828125 C 532.515625 308.828125 539.953125 301.390625 539.953125 292.214844 C 539.953125 283.039063 532.515625 275.601563 523.339844 275.601563 C 514.164063 275.601563 506.726563 283.039063 506.726563 292.214844 "/>
<path style=" stroke:none;fill-rule:nonzero;fill:rgb(100%,100%,100%);fill-opacity:1;" d="M 524.613281 301.652344 C 524.613281 303.835938 526.382813 305.601563 528.5625 305.601563 C 530.746094 305.601563 532.511719 303.835938 532.511719 301.652344 C 532.511719 299.472656 530.746094 297.707031 528.5625 297.707031 C 526.382813 297.707031 524.613281 299.472656 524.613281 301.652344 "/>
<path style=" stroke:none;fill-rule:nonzero;fill:rgb(100%,100%,100%);fill-opacity:1;" d="M 522.535156 278.097656 C 522.535156 281.429688 525.234375 284.125 528.5625 284.125 C 531.890625 284.125 534.589844 281.429688 534.589844 278.097656 C 534.589844 274.769531 531.890625 272.074219 528.5625 272.074219 C 525.234375 272.074219 522.535156 274.769531 522.535156 278.097656 "/>
<path style=" stroke:none;fill-rule:nonzero;fill:rgb(92.939758%,10.978699%,14.118958%);fill-opacity:1;" d="M 249.972656 419.339844 L 251.699219 419.339844 L 257.1875 434.453125 L 257.234375 434.453125 L 262.671875 419.339844 L 264.375 419.339844 L 258.109375 436.230469 L 256.238281 436.230469 Z M 249.972656 419.339844 "/>
<path style=" stroke:none;fill-rule:nonzero;fill:rgb(92.939758%,10.978699%,14.118958%);fill-opacity:1;" d="M 265.183594 424.023438 L 266.671875 424.023438 L 266.671875 436.226563 L 265.183594 436.226563 Z M 265.183594 419.34375 L 266.671875 419.34375 L 266.671875 421.730469 L 265.183594 421.730469 Z M 265.183594 419.34375 "/>
<path style=" stroke:none;fill-rule:nonzero;fill:rgb(92.939758%,10.978699%,14.118958%);fill-opacity:1;" d="M 272.867188 429.890625 L 268.492188 424.023438 L 270.363281 424.023438 L 273.839844 428.660156 L 277.242188 424.023438 L 279.113281 424.023438 L 274.714844 429.867188 L 279.46875 436.230469 L 277.574219 436.230469 L 273.742188 431.097656 L 269.984375 436.230469 L 268.140625 436.230469 Z M 272.867188 429.890625 "/>
<path style=" stroke:none;fill-rule:nonzero;fill:rgb(92.939758%,10.978699%,14.118958%);fill-opacity:1;" d="M 289.402344 429.273438 C 289.332031 427.027344 287.914063 424.921875 285.523438 424.921875 C 283.0625 424.921875 281.761719 427.050781 281.503906 429.273438 Z M 281.503906 430.53125 C 281.503906 432.707031 282.6875 435.332031 285.523438 435.332031 C 287.699219 435.332031 288.882813 434.078125 289.355469 432.207031 L 290.84375 432.207031 C 290.207031 434.976563 288.621094 436.585938 285.523438 436.585938 C 281.644531 436.585938 280.011719 433.601563 280.011719 430.128906 C 280.011719 426.910156 281.644531 423.671875 285.523438 423.671875 C 289.425781 423.671875 291.011719 427.097656 290.894531 430.53125 Z M 281.503906 430.53125 "/>
<path style=" stroke:none;fill-rule:nonzero;fill:rgb(92.939758%,10.978699%,14.118958%);fill-opacity:1;" d="M 292.882813 424.023438 L 294.371094 424.023438 L 294.371094 426.128906 L 294.417969 426.128906 C 294.988281 424.664063 296.59375 423.671875 298.320313 423.671875 C 301.75 423.671875 302.792969 425.46875 302.792969 428.375 L 302.792969 436.226563 L 301.300781 436.226563 L 301.300781 428.613281 C 301.300781 426.53125 300.617188 424.921875 298.203125 424.921875 C 295.816406 424.921875 294.441406 426.71875 294.371094 429.109375 L 294.371094 436.226563 L 292.882813 436.226563 Z M 292.882813 424.023438 "/>
<path style=" stroke:none;fill-rule:nonzero;fill:rgb(92.939758%,10.978699%,14.118958%);fill-opacity:1;" d="M 305.585938 424.023438 L 307.074219 424.023438 L 307.074219 426.128906 L 307.121094 426.128906 C 307.691406 424.664063 309.296875 423.671875 311.023438 423.671875 C 314.453125 423.671875 315.496094 425.46875 315.496094 428.375 L 315.496094 436.226563 L 314.003906 436.226563 L 314.003906 428.613281 C 314.003906 426.53125 313.320313 424.921875 310.90625 424.921875 C 308.515625 424.921875 307.144531 426.71875 307.074219 429.109375 L 307.074219 436.226563 L 305.585938 436.226563 Z M 305.585938 424.023438 "/>
<path style=" stroke:none;fill-rule:nonzero;fill:rgb(92.939758%,10.978699%,14.118958%);fill-opacity:1;" d="M 323.347656 419.339844 L 336.734375 419.339844 L 336.734375 420.710938 L 330.847656 420.710938 L 330.847656 436.230469 L 329.238281 436.230469 L 329.238281 420.710938 L 323.347656 420.710938 Z M 323.347656 419.339844 "/>
<path style=" stroke:none;fill-rule:nonzero;fill:rgb(92.939758%,10.978699%,14.118958%);fill-opacity:1;" d="M 336.644531 430.125 C 336.644531 432.703125 338.085938 435.328125 340.925781 435.328125 C 343.761719 435.328125 345.207031 432.703125 345.207031 430.125 C 345.207031 427.550781 343.761719 424.921875 340.925781 424.921875 C 338.085938 424.921875 336.644531 427.550781 336.644531 430.125 M 346.695313 430.125 C 346.695313 433.625 344.636719 436.582031 340.925781 436.582031 C 337.210938 436.582031 335.152344 433.625 335.152344 430.125 C 335.152344 426.625 337.210938 423.667969 340.925781 423.667969 C 344.636719 423.667969 346.695313 426.625 346.695313 430.125 "/>
<path style=" stroke:none;fill-rule:nonzero;fill:rgb(92.939758%,10.978699%,14.118958%);fill-opacity:1;" d="M 347.691406 424.023438 L 349.277344 424.023438 L 352.398438 434.476563 L 352.445313 434.476563 L 355.425781 424.023438 L 357.105469 424.023438 L 360.085938 434.476563 L 360.132813 434.476563 L 363.253906 424.023438 L 364.839844 424.023438 L 360.914063 436.226563 L 359.28125 436.226563 L 356.277344 425.964844 L 356.226563 425.964844 L 353.25 436.226563 L 351.617188 436.226563 Z M 347.691406 424.023438 "/>
<path style=" stroke:none;fill-rule:nonzero;fill:rgb(92.939758%,10.978699%,14.118958%);fill-opacity:1;" d="M 374.253906 429.558594 L 374.207031 429.558594 C 374.015625 429.914063 373.355469 430.03125 372.953125 430.101563 C 370.421875 430.550781 367.277344 430.550781 367.277344 432.917969 C 367.277344 434.410156 368.578125 435.328125 369.996094 435.328125 C 372.292969 435.328125 374.253906 433.886719 374.253906 431.496094 Z M 366.308594 427.761719 C 366.472656 424.902344 368.4375 423.667969 371.25 423.667969 C 373.402344 423.667969 375.746094 424.308594 375.746094 427.597656 L 375.746094 434.078125 C 375.746094 434.667969 376.027344 434.976563 376.621094 434.976563 C 376.785156 434.976563 376.925781 434.953125 377.09375 434.878906 L 377.09375 436.132813 C 376.738281 436.203125 376.527344 436.226563 376.121094 436.226563 C 374.609375 436.226563 374.371094 435.351563 374.371094 434.097656 L 374.324219 434.097656 C 373.261719 435.683594 372.242188 436.582031 369.878906 436.582031 C 367.609375 436.582031 365.789063 435.472656 365.789063 433.011719 C 365.789063 429.605469 369.121094 429.464844 372.339844 429.085938 C 373.570313 428.96875 374.253906 428.753906 374.253906 427.429688 C 374.253906 425.421875 372.835938 424.921875 371.0625 424.921875 C 369.191406 424.921875 367.867188 425.773438 367.796875 427.761719 Z M 366.308594 427.761719 "/>
<path style=" stroke:none;fill-rule:nonzero;fill:rgb(92.939758%,10.978699%,14.118958%);fill-opacity:1;" d="M 378.703125 424.023438 L 380.191406 424.023438 L 380.191406 426.128906 L 380.238281 426.128906 C 380.808594 424.664063 382.414063 423.671875 384.140625 423.671875 C 387.570313 423.671875 388.613281 425.46875 388.613281 428.375 L 388.613281 436.226563 L 387.121094 436.226563 L 387.121094 428.613281 C 387.121094 426.53125 386.4375 424.921875 384.023438 424.921875 C 381.636719 424.921875 380.261719 426.71875 380.191406 429.109375 L 380.191406 436.226563 L 378.703125 436.226563 Z M 378.703125 424.023438 "/>
<path style=" stroke:none;fill-rule:nonzero;fill:rgb(92.939758%,10.978699%,14.118958%);fill-opacity:1;" d="M 391.40625 424.023438 L 392.894531 424.023438 L 392.894531 426.128906 L 392.941406 426.128906 C 393.511719 424.664063 395.117188 423.671875 396.84375 423.671875 C 400.273438 423.671875 401.316406 425.46875 401.316406 428.375 L 401.316406 436.226563 L 399.824219 436.226563 L 399.824219 428.613281 C 399.824219 426.53125 399.136719 424.921875 396.726563 424.921875 C 394.339844 424.921875 392.96875 426.71875 392.894531 429.109375 L 392.894531 436.226563 L 391.40625 436.226563 Z M 391.40625 424.023438 "/>
<path style=" stroke:none;fill-rule:nonzero;fill:rgb(92.939758%,10.978699%,14.118958%);fill-opacity:1;" d="M 411.9375 429.558594 L 411.886719 429.558594 C 411.699219 429.914063 411.039063 430.03125 410.636719 430.101563 C 408.105469 430.550781 404.960938 430.550781 404.960938 432.917969 C 404.960938 434.410156 406.261719 435.328125 407.679688 435.328125 C 409.972656 435.328125 411.9375 433.886719 411.9375 431.496094 Z M 403.988281 427.761719 C 404.15625 424.902344 406.117188 423.667969 408.933594 423.667969 C 411.085938 423.667969 413.425781 424.308594 413.425781 427.597656 L 413.425781 434.078125 C 413.425781 434.667969 413.710938 434.976563 414.300781 434.976563 C 414.464844 434.976563 414.609375 434.953125 414.773438 434.878906 L 414.773438 436.132813 C 414.421875 436.203125 414.207031 436.226563 413.804688 436.226563 C 412.289063 436.226563 412.054688 435.351563 412.054688 434.097656 L 412.007813 434.097656 C 410.945313 435.683594 409.925781 436.582031 407.558594 436.582031 C 405.289063 436.582031 403.46875 435.472656 403.46875 433.011719 C 403.46875 429.605469 406.804688 429.464844 410.019531 429.085938 C 411.25 428.96875 411.9375 428.753906 411.9375 427.429688 C 411.9375 425.421875 410.515625 424.921875 408.742188 424.921875 C 406.875 424.921875 405.550781 425.773438 405.480469 427.761719 Z M 403.988281 427.761719 "/>
<path style=" stroke:none;fill-rule:nonzero;fill:rgb(100%,100%,100%);fill-opacity:1;" d="M 424.878906 427.359375 L 430.882813 427.359375 C 432.847656 427.359375 434.527344 426.128906 434.527344 424.074219 C 434.527344 421.992188 433.320313 420.714844 430.882813 420.714844 L 424.878906 420.714844 Z M 423.265625 419.339844 L 431.003906 419.339844 C 433.769531 419.339844 436.136719 420.691406 436.136719 423.742188 C 436.136719 425.894531 435.023438 427.597656 432.847656 428.046875 L 432.847656 428.09375 C 435.046875 428.398438 435.683594 429.867188 435.804688 431.898438 C 435.875 433.058594 435.875 435.402344 436.582031 436.226563 L 434.808594 436.226563 C 434.433594 435.589844 434.433594 434.3125 434.363281 433.601563 C 434.242188 431.238281 434.003906 428.613281 430.976563 428.730469 L 424.878906 428.730469 L 424.878906 436.226563 L 423.265625 436.226563 Z M 423.265625 419.339844 "/>
<path style=" stroke:none;fill-rule:nonzero;fill:rgb(100%,100%,100%);fill-opacity:1;" d="M 447.535156 429.273438 C 447.46875 427.027344 446.046875 424.921875 443.65625 424.921875 C 441.195313 424.921875 439.898438 427.050781 439.636719 429.273438 Z M 439.636719 430.53125 C 439.636719 432.707031 440.820313 435.332031 443.65625 435.332031 C 445.835938 435.332031 447.015625 434.078125 447.488281 432.207031 L 448.980469 432.207031 C 448.339844 434.976563 446.757813 436.585938 443.65625 436.585938 C 439.777344 436.585938 438.144531 433.601563 438.144531 430.128906 C 438.144531 426.910156 439.777344 423.671875 443.65625 423.671875 C 447.558594 423.671875 449.144531 427.097656 449.027344 430.53125 Z M 439.636719 430.53125 "/>
<path style=" stroke:none;fill-rule:nonzero;fill:rgb(100%,100%,100%);fill-opacity:1;" d="M 456.808594 424.921875 C 453.5 424.921875 452.527344 427.359375 452.527344 430.125 C 452.527344 432.65625 453.664063 435.328125 456.808594 435.328125 C 459.648438 435.328125 460.804688 432.65625 460.804688 430.125 C 460.804688 427.597656 459.648438 424.921875 456.808594 424.921875 M 451.039063 424.023438 L 452.414063 424.023438 L 452.414063 426.34375 L 452.457031 426.34375 C 453.144531 424.664063 454.824219 423.667969 456.808594 423.667969 C 460.523438 423.667969 462.296875 426.652344 462.296875 430.125 C 462.296875 433.605469 460.523438 436.582031 456.808594 436.582031 C 455.011719 436.582031 453.214844 435.683594 452.578125 433.910156 L 452.527344 433.910156 L 452.527344 440.746094 L 451.039063 440.746094 Z M 451.039063 424.023438 "/>
<path style=" stroke:none;fill-rule:nonzero;fill:rgb(100%,100%,100%);fill-opacity:1;" d="M 465.492188 430.125 C 465.492188 432.703125 466.933594 435.328125 469.773438 435.328125 C 472.609375 435.328125 474.054688 432.703125 474.054688 430.125 C 474.054688 427.550781 472.609375 424.921875 469.773438 424.921875 C 466.933594 424.921875 465.492188 427.550781 465.492188 430.125 M 475.542969 430.125 C 475.542969 433.625 473.488281 436.582031 469.773438 436.582031 C 466.058594 436.582031 464 433.625 464 430.125 C 464 426.625 466.058594 423.667969 469.773438 423.667969 C 473.488281 423.667969 475.542969 426.625 475.542969 430.125 "/>
<path style=" stroke:none;fill-rule:nonzero;fill:rgb(100%,100%,100%);fill-opacity:1;" d="M 477.769531 424.023438 L 479.140625 424.023438 L 479.140625 426.886719 L 479.1875 426.886719 C 479.945313 424.898438 481.601563 423.765625 483.800781 423.859375 L 483.800781 425.347656 C 481.105469 425.230469 479.257813 427.171875 479.257813 429.722656 L 479.257813 436.226563 L 477.769531 436.226563 Z M 477.769531 424.023438 "/>
<path style=" stroke:none;fill-rule:nonzero;fill:rgb(100%,100%,100%);fill-opacity:1;" d="M 487.679688 424.023438 L 490.164063 424.023438 L 490.164063 425.277344 L 487.679688 425.277344 L 487.679688 433.507813 C 487.679688 434.476563 487.820313 435.046875 488.886719 435.117188 C 489.3125 435.117188 489.738281 435.09375 490.164063 435.046875 L 490.164063 436.324219 C 489.710938 436.324219 489.289063 436.371094 488.839844 436.371094 C 486.851563 436.371094 486.164063 435.707031 486.191406 433.628906 L 486.191406 425.277344 L 484.0625 425.277344 L 484.0625 424.023438 L 486.191406 424.023438 L 486.191406 420.359375 L 487.679688 420.359375 Z M 487.679688 424.023438 "/>
<path style=" stroke:none;fill-rule:nonzero;fill:rgb(100%,100%,100%);fill-opacity:1;" d="M 492.339844 424.023438 L 493.828125 424.023438 L 493.828125 436.226563 L 492.339844 436.226563 Z M 492.339844 419.34375 L 493.828125 419.34375 L 493.828125 421.730469 L 492.339844 421.730469 Z M 492.339844 419.34375 "/>
<path style=" stroke:none;fill-rule:nonzero;fill:rgb(100%,100%,100%);fill-opacity:1;" d="M 496.667969 424.023438 L 498.15625 424.023438 L 498.15625 426.128906 L 498.207031 426.128906 C 498.773438 424.664063 500.382813 423.671875 502.109375 423.671875 C 505.539063 423.671875 506.578125 425.46875 506.578125 428.375 L 506.578125 436.226563 L 505.089844 436.226563 L 505.089844 428.613281 C 505.089844 426.53125 504.402344 424.921875 501.988281 424.921875 C 499.601563 424.921875 498.230469 426.71875 498.15625 429.109375 L 498.15625 436.226563 L 496.667969 436.226563 Z M 496.667969 424.023438 "/>
<path style=" stroke:none;fill-rule:nonzero;fill:rgb(100%,100%,100%);fill-opacity:1;" d="M 518.214844 429.984375 C 518.214844 427.597656 517.128906 424.921875 514.289063 424.921875 C 511.453125 424.921875 510.269531 427.453125 510.269531 429.984375 C 510.269531 432.445313 511.523438 434.835938 514.289063 434.835938 C 516.867188 434.835938 518.214844 432.445313 518.214844 429.984375 M 519.707031 435.234375 C 519.707031 438.902344 518.242188 441.101563 514.289063 441.101563 C 511.855469 441.101563 509.417969 439.988281 509.230469 437.410156 L 510.71875 437.410156 C 511.027344 439.210938 512.65625 439.847656 514.289063 439.847656 C 517.058594 439.847656 518.214844 438.238281 518.214844 435.234375 L 518.214844 433.582031 L 518.167969 433.582031 C 517.484375 435.09375 516.066406 436.085938 514.289063 436.085938 C 510.386719 436.085938 508.777344 433.320313 508.777344 429.820313 C 508.777344 426.460938 510.765625 423.671875 514.289063 423.671875 C 516.085938 423.671875 517.578125 424.78125 518.167969 426.128906 L 518.214844 426.128906 L 518.214844 424.023438 L 519.707031 424.023438 Z M 519.707031 435.234375 "/>
<path style=" stroke:none;fill-rule:nonzero;fill:rgb(100%,100%,100%);fill-opacity:1;" d="M 533.832031 425.277344 L 531.417969 425.277344 L 531.417969 436.226563 L 529.929688 436.226563 L 529.929688 425.277344 L 527.847656 425.277344 L 527.847656 424.023438 L 529.929688 424.023438 L 529.929688 422.914063 C 529.929688 420.808594 530.472656 419.339844 532.886719 419.339844 C 533.335938 419.339844 533.667969 419.367188 534.140625 419.4375 L 534.140625 420.714844 C 533.734375 420.640625 533.40625 420.59375 533.050781 420.59375 C 531.417969 420.59375 531.417969 421.660156 531.417969 422.960938 L 531.417969 424.023438 L 533.832031 424.023438 Z M 533.832031 425.277344 "/>
<path style=" stroke:none;fill-rule:nonzero;fill:rgb(100%,100%,100%);fill-opacity:1;" d="M 536.125 430.125 C 536.125 432.703125 537.566406 435.328125 540.40625 435.328125 C 543.242188 435.328125 544.6875 432.703125 544.6875 430.125 C 544.6875 427.550781 543.242188 424.921875 540.40625 424.921875 C 537.566406 424.921875 536.125 427.550781 536.125 430.125 M 546.175781 430.125 C 546.175781 433.625 544.121094 436.582031 540.40625 436.582031 C 536.691406 436.582031 534.632813 433.625 534.632813 430.125 C 534.632813 426.625 536.691406 423.667969 540.40625 423.667969 C 544.121094 423.667969 546.175781 426.625 546.175781 430.125 "/>
<path style=" stroke:none;fill-rule:nonzero;fill:rgb(100%,100%,100%);fill-opacity:1;" d="M 548.402344 424.023438 L 549.773438 424.023438 L 549.773438 426.886719 L 549.820313 426.886719 C 550.578125 424.898438 552.234375 423.765625 554.433594 423.859375 L 554.433594 425.347656 C 551.734375 425.230469 549.890625 427.171875 549.890625 429.722656 L 549.890625 436.226563 L 548.402344 436.226563 Z M 548.402344 424.023438 "/>
<path style=" stroke:none;fill-rule:nonzero;fill:rgb(100%,100%,100%);fill-opacity:1;" d="M 569.855469 434.855469 C 572.242188 434.855469 574.300781 434.125 574.300781 431.378906 C 574.300781 429.207031 572.695313 428.117188 569.855469 428.117188 L 564.320313 428.117188 L 564.320313 434.855469 Z M 569.855469 426.746094 C 572.410156 426.746094 573.664063 425.46875 573.664063 423.882813 C 573.664063 421.777344 572.386719 420.710938 569.855469 420.710938 L 564.320313 420.710938 L 564.320313 426.746094 Z M 562.714844 419.339844 L 569.855469 419.339844 C 572.695313 419.339844 575.269531 420.335938 575.269531 423.480469 C 575.269531 425.253906 574.085938 426.886719 572.339844 427.265625 L 572.339844 427.3125 C 574.515625 427.597656 575.910156 429.226563 575.910156 431.425781 C 575.910156 433.035156 575.34375 436.226563 569.855469 436.226563 L 562.714844 436.226563 Z M 562.714844 419.339844 "/>
<path style=" stroke:none;fill-rule:nonzero;fill:rgb(100%,100%,100%);fill-opacity:1;" d="M 586.984375 429.273438 C 586.914063 427.027344 585.492188 424.921875 583.105469 424.921875 C 580.640625 424.921875 579.34375 427.050781 579.085938 429.273438 Z M 579.085938 430.53125 C 579.085938 432.707031 580.265625 435.332031 583.105469 435.332031 C 585.28125 435.332031 586.460938 434.078125 586.933594 432.207031 L 588.425781 432.207031 C 587.789063 434.976563 586.203125 436.585938 583.105469 436.585938 C 579.226563 436.585938 577.59375 433.601563 577.59375 430.128906 C 577.59375 426.910156 579.226563 423.671875 583.105469 423.671875 C 587.003906 423.671875 588.589844 427.097656 588.472656 430.53125 Z M 579.085938 430.53125 "/>
<path style=" stroke:none;fill-rule:nonzero;fill:rgb(100%,100%,100%);fill-opacity:1;" d="M 598.289063 429.558594 L 598.242188 429.558594 C 598.050781 429.914063 597.390625 430.03125 596.988281 430.101563 C 594.457031 430.550781 591.3125 430.550781 591.3125 432.917969 C 591.3125 434.410156 592.613281 435.328125 594.03125 435.328125 C 596.324219 435.328125 598.289063 433.886719 598.289063 431.496094 Z M 590.34375 427.761719 C 590.507813 424.902344 592.46875 423.667969 595.285156 423.667969 C 597.4375 423.667969 599.78125 424.308594 599.78125 427.597656 L 599.78125 434.078125 C 599.78125 434.667969 600.0625 434.976563 600.652344 434.976563 C 600.820313 434.976563 600.964844 434.953125 601.128906 434.878906 L 601.128906 436.132813 C 600.773438 436.203125 600.558594 436.226563 600.15625 436.226563 C 598.644531 436.226563 598.40625 435.351563 598.40625 434.097656 L 598.359375 434.097656 C 597.296875 435.683594 596.277344 436.582031 593.910156 436.582031 C 591.644531 436.582031 589.820313 435.472656 589.820313 433.011719 C 589.820313 429.605469 593.15625 429.464844 596.375 429.085938 C 597.601563 428.96875 598.289063 428.753906 598.289063 427.429688 C 598.289063 425.421875 596.867188 424.921875 595.097656 424.921875 C 593.226563 424.921875 591.902344 425.773438 591.832031 427.761719 Z M 590.34375 427.761719 "/>
<path style=" stroke:none;fill-rule:nonzero;fill:rgb(100%,100%,100%);fill-opacity:1;" d="M 612.648438 436.226563 L 611.277344 436.226563 L 611.277344 434.03125 L 611.226563 434.03125 C 610.449219 435.660156 608.839844 436.582031 607.015625 436.582031 C 603.917969 436.582031 602.738281 434.808594 602.738281 431.949219 L 602.738281 424.023438 L 604.226563 424.023438 L 604.226563 431.972656 C 604.296875 434.171875 605.125 435.332031 607.492188 435.332031 C 610.042969 435.332031 611.15625 432.917969 611.15625 430.433594 L 611.15625 424.023438 L 612.648438 424.023438 Z M 612.648438 436.226563 "/>
<path style=" stroke:none;fill-rule:nonzero;fill:rgb(100%,100%,100%);fill-opacity:1;" d="M 617.828125 424.023438 L 620.3125 424.023438 L 620.3125 425.277344 L 617.828125 425.277344 L 617.828125 433.507813 C 617.828125 434.476563 617.96875 435.046875 619.035156 435.117188 C 619.460938 435.117188 619.886719 435.09375 620.3125 435.046875 L 620.3125 436.324219 C 619.863281 436.324219 619.4375 436.371094 618.988281 436.371094 C 617.003906 436.371094 616.3125 435.707031 616.339844 433.628906 L 616.339844 425.277344 L 614.210938 425.277344 L 614.210938 424.023438 L 616.339844 424.023438 L 616.339844 420.359375 L 617.828125 420.359375 Z M 617.828125 424.023438 "/>
<path style=" stroke:none;fill-rule:nonzero;fill:rgb(100%,100%,100%);fill-opacity:1;" d="M 621.09375 424.023438 L 622.679688 424.023438 L 626.699219 434.429688 L 630.460938 424.023438 L 631.949219 424.023438 L 626.652344 438.097656 C 625.777344 440.15625 625.304688 440.746094 623.4375 440.746094 C 622.84375 440.722656 622.5625 440.722656 622.300781 440.628906 L 622.300781 439.375 C 622.65625 439.445313 622.960938 439.492188 623.316406 439.492188 C 624.640625 439.492188 624.949219 438.710938 625.445313 437.578125 L 625.964844 436.179688 Z M 621.09375 424.023438 "/>
</g>
</svg>
